<svg xmlns="http://www.w3.org/2000/svg" width="32" height="32"><path d="M-.01-5.02 56.374-5" style="fill:none;stroke-width:10;stroke-linecap:butt;stroke-linejoin:miter;stroke:#000;stroke-opacity:1;stroke-miterlimit:4" transform="matrix(.078 -.04056 .03993 .07832 8.088 8.791)"/><path d="m89.4 134.723 53.765 27.682" style="fill:none;stroke-width:10;stroke-linecap:butt;stroke-linejoin:miter;stroke:#000;stroke-opacity:1;stroke-miterlimit:4" transform="scale(.08791)"/><path d="m-.025-4.99 56.402-.018" style="fill:none;stroke-width:10;stroke-linecap:butt;stroke-linejoin:miter;stroke:#000;stroke-opacity:1;stroke-miterlimit:4" transform="matrix(.078 -.04056 .03993 .07832 8.088 20.484)"/><path d="m89.4 267.712 53.765 27.683M214.303 80.603l70.605 73.848" style="fill:none;stroke-width:10;stroke-linecap:butt;stroke-linejoin:miter;stroke:#000;stroke-opacity:1;stroke-miterlimit:4" transform="scale(.08791)"/><path d="m-.006-4.976 102.201-.017" style="fill:none;stroke-width:10;stroke-linecap:butt;stroke-linejoin:miter;stroke:#000;stroke-opacity:1;stroke-miterlimit:4" transform="matrix(.06076 -.06353 -.06353 -.06076 18.462 24.69)"/><path d="m224.079 183.022 57.008.978" style="fill:none;stroke-width:10;stroke-linecap:butt;stroke-linejoin:miter;stroke:#000;stroke-opacity:1;stroke-miterlimit:4" transform="scale(.08791)"/><path d="M27.605 20.219A4.396 4.396 0 0 0 32 15.824a4.396 4.396 0 0 0-8.793 0 4.397 4.397 0 0 0 4.398 4.395Zm0-1.758a2.636 2.636 0 0 0 2.637-2.637 2.636 2.636 0 0 0-2.637-2.636 2.636 2.636 0 0 0-2.636 2.636 2.636 2.636 0 0 0 2.636 2.637Zm0 0" style="stroke:none;fill-rule:evenodd;fill:#449107;fill-opacity:1"/><path d="M16 20.395A4.396 4.396 0 0 0 20.395 16 4.396 4.396 0 0 0 16 11.605 4.396 4.396 0 0 0 11.605 16 4.396 4.396 0 0 0 16 20.395Zm0-1.758A2.636 2.636 0 0 0 18.637 16 2.636 2.636 0 0 0 16 13.363 2.636 2.636 0 0 0 13.363 16 2.636 2.636 0 0 0 16 18.637ZM16 32a4.396 4.396 0 0 0 0-8.793A4.397 4.397 0 0 0 16 32Zm0-1.758a2.636 2.636 0 0 0 2.637-2.637A2.636 2.636 0 0 0 16 24.97a2.636 2.636 0 0 0-2.637 2.636A2.636 2.636 0 0 0 16 30.242ZM16 8.793A4.397 4.397 0 0 0 16 0a4.396 4.396 0 0 0 0 8.793Zm0-1.762a2.636 2.636 0 0 0 2.637-2.636A2.636 2.636 0 0 0 16 1.758a2.636 2.636 0 0 0-2.637 2.637A2.636 2.636 0 0 0 16 7.03ZM4.395 14.594A4.397 4.397 0 1 0 4.397 5.8a4.397 4.397 0 0 0-.002 8.794Zm0-1.758a2.639 2.639 0 0 0 0-5.277 2.639 2.639 0 0 0 0 5.277ZM4.395 26.2a4.397 4.397 0 1 0 .003-8.792 4.397 4.397 0 0 0-.003 8.791Zm0-1.759a2.639 2.639 0 0 0 0-5.277 2.639 2.639 0 0 0 0 5.277Zm0 0" style="stroke:none;fill-rule:evenodd;fill:#4d4d4d;fill-opacity:1"/></svg>